{"title":"Mysterious.Island.[2011].Chinese.EngHardSub.DvdRip.XviD-KnÃƒÂ£","uid":6663464,"size":1566023680,"categoryP":"video","categoryS":"movies","magnet":"?xt=urn:btih:6fc4902eab0050a95b86c4e99677abec27d54212&amp;dn=Mysterious.Island.%5B2011%5D.Chinese.EngHardSub.DvdRip.XviD-Kn%C3%83%C2%A3&amp;tr=udp%3A%2F%2Ftracker.openbittorrent.com%3A80&amp;tr=udp%3A%2F%2Fopen.demonii.com%3A1337&amp;tr=udp%3A%2F%2Ftracker.coppersurfer.tk%3A6969&amp;tr=udp%3A%2F%2Fexodus.desync.com%3A6969","seeders":0,"leechers":0,"uploader":"Jon.Pson","files":1,"time":1315600580,"description":"The film is about a group of people invited to a Survivor styled television program on the Binlusai islands. On arriving there they lose their luggage and come across a message stating that they will all be killed.\n\n\n\nGeneral\nComplete name                    : Z:\\\\Movies\\\\Mysterious.Island.[2011].Chinese.EngHardSub.DvdRip.XviD-KnÃƒÂ£\\\\Mysterious.Island.[2011].Chinese.EngHardSub.DvdRip.XviD-KnÃƒÂ£.avi\nFormat                           : AVI\nFormat/Info                      : Audio Video Interleave\nFile size                        : 1.46 GiB\nDuration                         : 1h 38mn\nOverall bit rate                 : 2 117 Kbps\nWriting application              : VirtualDubMod 1.5.4.1 (build 2178/release)\nWriting library                  : VirtualDubMod build 2178/release\n\nVideo\nID                               : 0\nFormat                           : MPEG-4 Visual\nFormat profile                   : Advanced Simple@L5\nFormat settings, BVOP            : 1\nFormat settings, QPel            : No\nFormat settings, GMC             : No warppoints\nFormat settings, Matrix          : Custom\nCodec ID                         : XVID\nCodec ID/Hint                    : XviD\nDuration                         : 1h 38mn\nBit rate                         : 1 727 Kbps\nWidth                            : 720 pixels\nHeight                           : 416 pixels\nDisplay aspect ratio             : 16:9\nFrame rate                       : 23.976 fps\nColor space                      : YUV\nChroma subsampling               : 4:2:0\nBit depth                        : 8 bits\nScan type                        : Progressive\nCompression mode                 : Lossy\nBits/(Pixel*Frame)               : 0.240\nStream size                      : 1.19 GiB (82%)\nWriting library                  : XviD 1.2.1 (UTC 2008-12-04)\n\nAudio\nID                               : 1\nFormat                           : AC-3\nFormat/Info                      : Audio Coding 3\nMode extension                   : CM (complete main)\nCodec ID                         : 2000\nDuration                         : 1h 38mn\nBit rate mode                    : Constant\nBit rate                         : 384 Kbps\nChannel(s)                       : 6 channels\nChannel positions                : Front: L C R, Side: L R, LFE\nSampling rate                    : 48.0 KHz\nBit depth                        : 16 bits\nCompression mode                 : Lossy\nStream size                      : 271 MiB (18%)\nAlignment                        : Split accross interleaves\nInterleave, duration             : 96 ms (2.30 video frames)\nInterleave, preload duration     : 96 ms\nLanguage                         : Chinese\n\n","torrent":{"xt":"urn:btih:6fc4902eab0050a95b86c4e99677abec27d54212","amp;dn":"Mysterious.Island.%5B2011%5D.Chinese.EngHardSub.DvdRip.XviD-Kn%C3%83%C2%A3","amp;tr":["udp%3A%2F%2Ftracker.openbittorrent.com%3A80","udp%3A%2F%2Fopen.demonii.com%3A1337","udp%3A%2F%2Ftracker.coppersurfer.tk%3A6969","udp%3A%2F%2Fexodus.desync.com%3A6969"],"infoHash":"6fc4902eab0050a95b86c4e99677abec27d54212","infoHashBuffer":{"type":"Buffer","data":[111,196,144,46,171,0,80,169,91,134,196,233,150,119,171,236,39,213,66,18]},"announce":[],"urlList":[]}}